<?xml version="1.0" encoding="utf-8"?>
<!-- Uploaded to: SVG Repo, www.svgrepo.com, Generator: SVG Repo Mixer Tools -->
<svg width="800px" height="800px" viewBox="0 0 1024 1024" class="icon"  version="1.1" xmlns="http://www.w3.org/2000/svg"><path d="M484.2 270h52.2v78.3h-52.2z" fill="#CDE9E3" /><path d="M471.1 348.2h78.3v326.1h-78.3zM549.4 674.4h-78.3l23.5 91.3h32z" fill="#96C8D1" /><path d="M562.5 348.2c0-7.2-5.8-13-13-13V270c0-7.2-5.8-13-13-13h-52.2c-7.2 0-13 5.8-13 13v65.2H432c-7.2 0-13 5.8-13 13v156.5c0 7.2 5.8 13 13 13s13-5.8 13-13v-39.1h13V674.4c0 0.3 0.1 0.6 0.1 0.9 0.1 0.7 0.1 1.3 0.3 1.9v0.3l23.4 91.3c1.5 5.8 6.7 9.8 12.6 9.8h32.1c6 0 11.2-4.1 12.7-9.9l22.8-91.3v-0.2c0.2-0.7 0.2-1.4 0.3-2.1 0-0.2 0.1-0.5 0.1-0.7V348.2z m-78.3 13.1h52.2v300h-52.2v-300z m13-78.3h26.1v52.2h-26.1V283z m-52.1 156.6v-78.3h13v78.3h-13z m71.4 313h-11.8L488 687.4h44.8l-16.3 65.2z" fill="#211F1E" /></svg>